# xmcd
#
# Track frame offsets:
#	150
#	14590
#	30498
#	42535
#	55928
#	69618
#	81410
#	94450
#	109218
#	122605
#	140878
#	152753
#
# Disc length: 2271 seconds
#
# Revision: 0
# Processed by: cddbd v1.4PL0 Copyright (c) Steve Scherf et al.
# Submitted via: dBpowerAMP V4.0
#
DISCID=af08dd0c
DTITLE=Sandra van Reys - Heartstrings
DYEAR=1993
DGENRE=Country
TTITLE0=Let us try
TTITLE1=Citylights in the morning
TTITLE2=The ballad of Jesse Green
TTITLE3=All that we need is each other
TTITLE4=Do you love me
TTITLE5=Ev'rybody is rockin'
TTITLE6=I'm coming home again
TTITLE7=The French song
TTITLE8=It's gonna hurt me
TTITLE9=Don't say you love me
TTITLE10=You're the reason why
TTITLE11=Hard times coming
EXTD=
EXTT0=
EXTT1=
EXTT2=
EXTT3=
EXTT4=
EXTT5=
EXTT6=
EXTT7=
EXTT8=
EXTT9=
EXTT10=
EXTT11=
PLAYORDER=
